<svg width="102" height="32" viewBox="0 0 102 32" fill="none" xmlns="http://www.w3.org/2000/svg">
<rect width="101.042" height="31.9081" rx="4.5583" fill="#3C65F5"/>
<path d="M67.0233 14.8783V16.5864H65.9526V17.7065H67.0233V21.5125C67.0233 22.8121 67.6112 23.332 69.0903 23.332C69.3502 23.332 69.5977 23.301 69.8143 23.2639V22.1561C69.6287 22.1747 69.5111 22.1871 69.3069 22.1871C68.6447 22.1871 68.3538 21.8777 68.3538 21.1722V17.7065H69.8143V16.5864H68.3538V14.8783H67.0233Z" fill="white"/>
<path d="M73.5822 23.4248C75.5502 23.4248 76.757 22.1066 76.757 19.922C76.757 17.7498 75.544 16.4255 73.5822 16.4255C71.6143 16.4255 70.4013 17.7498 70.4013 19.922C70.4013 22.1066 71.6081 23.4248 73.5822 23.4248ZM73.5822 22.2428C72.425 22.2428 71.7752 21.3949 71.7752 19.922C71.7752 18.4615 72.425 17.6075 73.5822 17.6075C74.7333 17.6075 75.3893 18.4615 75.3893 19.922C75.3893 21.3888 74.7333 22.2428 73.5822 22.2428Z" fill="white"/>
<path d="M77.7895 23.2949H79.1201V19.3156C79.1201 18.3687 79.8318 17.7313 80.8405 17.7313C81.0757 17.7313 81.4718 17.7746 81.5832 17.8117V16.4997C81.4408 16.4626 81.1871 16.444 80.9891 16.444C80.1103 16.444 79.3614 16.9267 79.1696 17.5889H79.0706V16.5554H77.7895V23.2949Z" fill="white"/>
<path d="M84.8869 17.558C85.8709 17.558 86.5145 18.2449 86.5455 19.3032H83.1417C83.216 18.2511 83.9029 17.558 84.8869 17.558ZM86.5393 21.4754C86.2917 22.0014 85.7409 22.2923 84.9364 22.2923C83.872 22.2923 83.185 21.5435 83.1417 20.3614V20.2872H87.9008V19.823C87.9008 17.7065 86.7683 16.4255 84.8931 16.4255C82.9932 16.4255 81.7864 17.7932 81.7864 19.9468C81.7864 22.1004 82.9684 23.4248 84.8993 23.4248C86.4403 23.4248 87.5171 22.6822 87.8203 21.4754H86.5393Z" fill="white"/>
<path d="M58.2977 20.8061C58.4003 22.461 59.7794 23.5194 61.832 23.5194C64.0257 23.5194 65.3983 22.4097 65.3983 20.6393C65.3983 19.2474 64.6158 18.4777 62.7171 18.0351L61.6973 17.7849C60.4914 17.5027 60.0039 17.1243 60.0039 16.4636C60.0039 15.6297 60.7608 15.0845 61.8961 15.0845C62.9737 15.0845 63.7178 15.6169 63.8525 16.47H65.2508C65.1674 14.9113 63.7948 13.8145 61.9154 13.8145C59.8948 13.8145 58.5478 14.9113 58.5478 16.5598C58.5478 17.9196 59.3111 18.7278 60.9853 19.1191L62.1783 19.4078C63.4035 19.6964 63.9423 20.1198 63.9423 20.8253C63.9423 21.6464 63.0956 22.2429 61.941 22.2429C60.703 22.2429 59.8435 21.6849 59.7216 20.8061H58.2977Z" fill="white"/>
<path d="M44.5144 16.444C43.5985 16.444 42.8064 16.902 42.3979 17.6694H42.2989V16.5554H41.0179V25.5351H42.3484V22.2737H42.4536C42.8064 22.9854 43.5676 23.4063 44.5268 23.4063C46.2287 23.4063 47.3117 22.0633 47.3117 19.922C47.3117 17.7808 46.2287 16.444 44.5144 16.444ZM44.1369 22.2118C43.023 22.2118 42.3237 21.3331 42.3237 19.9282C42.3237 18.5172 43.023 17.6384 44.1431 17.6384C45.2695 17.6384 45.944 18.4987 45.944 19.922C45.944 21.3516 45.2695 22.2118 44.1369 22.2118Z" fill="white"/>
<path d="M51.9675 16.444C51.0516 16.444 50.2595 16.902 49.851 17.6694H49.752V16.5554H48.471V25.5351H49.8015V22.2737H49.9067C50.2595 22.9854 51.0207 23.4063 51.9799 23.4063C53.6818 23.4063 54.7648 22.0633 54.7648 19.922C54.7648 17.7808 53.6818 16.444 51.9675 16.444ZM51.59 22.2118C50.4761 22.2118 49.7768 21.3331 49.7768 19.9282C49.7768 18.5172 50.4761 17.6384 51.5962 17.6384C52.7226 17.6384 53.3971 18.4987 53.3971 19.922C53.3971 21.3516 52.7226 22.2118 51.59 22.2118Z" fill="white"/>
<path d="M38.6306 23.2949H40.1572L36.8153 14.039H35.2695L31.9276 23.2949H33.4029L34.256 20.8382H37.7839L38.6306 23.2949ZM35.9687 15.7195H36.0777L37.4183 19.6323H34.6216L35.9687 15.7195Z" fill="white"/>
<path d="M32.8191 7.05759V11.5227H34.4312C35.7618 11.5227 36.5323 10.7027 36.5323 9.27622C36.5323 7.87139 35.7556 7.05759 34.4312 7.05759H32.8191ZM33.5122 7.68883H34.3539C35.2791 7.68883 35.8268 8.27675 35.8268 9.2855C35.8268 10.3097 35.2884 10.8915 34.3539 10.8915H33.5122V7.68883Z" fill="white"/>
<path d="M38.892 11.5877C39.876 11.5877 40.4794 10.9286 40.4794 9.83629C40.4794 8.75018 39.8729 8.088 38.892 8.088C37.908 8.088 37.3015 8.75018 37.3015 9.83629C37.3015 10.9286 37.9049 11.5877 38.892 11.5877ZM38.892 10.9967C38.3134 10.9967 37.9885 10.5727 37.9885 9.83629C37.9885 9.10603 38.3134 8.67901 38.892 8.67901C39.4676 8.67901 39.7955 9.10603 39.7955 9.83629C39.7955 10.5696 39.4676 10.9967 38.892 10.9967Z" fill="white"/>
<path d="M45.6178 8.15298H44.9525L44.3522 10.7244H44.2996L43.6065 8.15298H42.9691L42.276 10.7244H42.2264L41.6231 8.15298H40.9485L41.8768 11.5227H42.5606L43.2538 9.04105H43.3064L44.0026 11.5227H44.6926L45.6178 8.15298Z" fill="white"/>
<path d="M46.384 11.5227H47.0493V9.55161C47.0493 9.02558 47.3618 8.69758 47.8538 8.69758C48.3458 8.69758 48.5809 8.96678 48.5809 9.50829V11.5227H49.2462V9.3412C49.2462 8.53977 48.8316 8.088 48.0797 8.088C47.5722 8.088 47.238 8.31388 47.074 8.6883H47.0245V8.15298H46.384V11.5227Z" fill="white"/>
<path d="M50.294 11.5227H50.9592V6.83789H50.294V11.5227Z" fill="white"/>
<path d="M53.4613 11.5877C54.4453 11.5877 55.0487 10.9286 55.0487 9.83629C55.0487 8.75018 54.4422 8.088 53.4613 8.088C52.4773 8.088 51.8708 8.75018 51.8708 9.83629C51.8708 10.9286 52.4742 11.5877 53.4613 11.5877ZM53.4613 10.9967C52.8827 10.9967 52.5578 10.5727 52.5578 9.83629C52.5578 9.10603 52.8827 8.67901 53.4613 8.67901C54.0369 8.67901 54.3649 9.10603 54.3649 9.83629C54.3649 10.5696 54.0369 10.9967 53.4613 10.9967Z" fill="white"/>
<path d="M57.0309 11.0183C56.6689 11.0183 56.4059 10.8419 56.4059 10.5387C56.4059 10.2416 56.6163 10.0838 57.0804 10.0529L57.9035 10.0003V10.2819C57.9035 10.6996 57.5322 11.0183 57.0309 11.0183ZM56.8607 11.5784C57.3032 11.5784 57.6714 11.3865 57.8726 11.0493H57.9252V11.5227H58.5657V9.22052C58.5657 8.50882 58.0892 8.088 57.2444 8.088C56.4801 8.088 55.9355 8.45932 55.8675 9.03795H56.5111C56.5853 8.79969 56.8422 8.66354 57.2135 8.66354C57.6684 8.66354 57.9035 8.86467 57.9035 9.22052V9.51138L56.9907 9.56399C56.1893 9.6135 55.7375 9.96316 55.7375 10.5696C55.7375 11.1854 56.2109 11.5784 56.8607 11.5784Z" fill="white"/>
<path d="M60.8233 11.5784C61.2875 11.5784 61.6804 11.3587 61.8816 10.9905H61.9342V11.5227H62.5716V6.83789H61.9063V8.6883H61.8568C61.6743 8.31698 61.2844 8.09728 60.8233 8.09728C59.9724 8.09728 59.4247 8.77184 59.4247 9.83629C59.4247 10.9038 59.9662 11.5784 60.8233 11.5784ZM61.0121 8.69448C61.5691 8.69448 61.9187 9.13697 61.9187 9.83938C61.9187 10.5449 61.5721 10.9812 61.0121 10.9812C60.4489 10.9812 60.1116 10.5511 60.1116 9.83629C60.1116 9.12769 60.452 8.69448 61.0121 8.69448Z" fill="white"/>
<path d="M66.8857 11.5877C67.8697 11.5877 68.4731 10.9286 68.4731 9.83629C68.4731 8.75018 67.8666 8.088 66.8857 8.088C65.9017 8.088 65.2952 8.75018 65.2952 9.83629C65.2952 10.9286 65.8986 11.5877 66.8857 11.5877ZM66.8857 10.9967C66.3071 10.9967 65.9822 10.5727 65.9822 9.83629C65.9822 9.10603 66.3071 8.67901 66.8857 8.67901C67.4613 8.67901 67.7893 9.10603 67.7893 9.83629C67.7893 10.5696 67.4613 10.9967 66.8857 10.9967Z" fill="white"/>
<path d="M69.3538 11.5227H70.019V9.55161C70.019 9.02558 70.3316 8.69758 70.8236 8.69758C71.3156 8.69758 71.5507 8.96678 71.5507 9.50829V11.5227H72.216V9.3412C72.216 8.53977 71.8014 8.088 71.0494 8.088C70.542 8.088 70.2078 8.31388 70.0438 8.6883H69.9943V8.15298H69.3538V11.5227Z" fill="white"/>
<path d="M75.28 7.31442V8.16845H74.7447V8.72852H75.28V10.6315C75.28 11.2813 75.574 11.5413 76.3135 11.5413C76.4435 11.5413 76.5672 11.5258 76.6755 11.5072V10.9533C76.5827 10.9626 76.5239 10.9688 76.4218 10.9688C76.0907 10.9688 75.9453 10.8141 75.9453 10.4613V8.72852H76.6755V8.16845H75.9453V7.31442H75.28Z" fill="white"/>
<path d="M77.5686 11.5227H78.2338V9.55471C78.2338 9.04414 78.5371 8.70067 79.0817 8.70067C79.552 8.70067 79.8027 8.97297 79.8027 9.51138V11.5227H80.4679V9.34739C80.4679 8.54596 80.0254 8.09109 79.3076 8.09109C78.8001 8.09109 78.4442 8.31698 78.2803 8.69448H78.2276V6.83789H77.5686V11.5227Z" fill="white"/>
<path d="M82.8679 8.65426C83.3599 8.65426 83.6817 8.99773 83.6972 9.52686H81.9953C82.0324 9.00082 82.3759 8.65426 82.8679 8.65426ZM83.6941 10.613C83.5703 10.876 83.2949 11.0214 82.8926 11.0214C82.3604 11.0214 82.0169 10.647 81.9953 10.056V10.0189H84.3748V9.78678C84.3748 8.72852 83.8086 8.088 82.871 8.088C81.921 8.088 81.3176 8.77184 81.3176 9.84867C81.3176 10.9255 81.9086 11.5877 82.8741 11.5877C83.6446 11.5877 84.183 11.2164 84.3346 10.613H83.6941Z" fill="white"/>
<path d="M24.7072 15.6992C24.7233 14.4459 25.3964 13.26 26.4641 12.6036C25.7905 11.6416 24.6623 11.0317 23.4885 10.9949C22.2365 10.8635 21.0228 11.7441 20.3849 11.7441C19.7345 11.7441 18.7523 11.008 17.6945 11.0297C16.3158 11.0743 15.0305 11.8581 14.3598 13.0635C12.9179 15.5599 13.9934 19.2288 15.3746 21.2467C16.0656 22.2348 16.8733 23.3386 17.9301 23.2994C18.9642 23.2566 19.3504 22.64 20.5987 22.64C21.8354 22.64 22.1977 23.2994 23.276 23.2746C24.3856 23.2565 25.0848 22.2821 25.7516 21.2846C26.2481 20.5805 26.6301 19.8024 26.8836 18.979C25.5796 18.4274 24.7087 17.1151 24.7072 15.6992Z" fill="white"/>
<path d="M22.6706 9.66786C23.2756 8.94154 23.5737 8.00798 23.5015 7.06543C22.5772 7.16252 21.7233 7.6043 21.1101 8.30275C20.5105 8.98518 20.1984 9.90231 20.2574 10.8088C21.1821 10.8184 22.0911 10.3885 22.6706 9.66786Z" fill="white"/>
</svg>
