<svg width="102" height="32" viewBox="0 0 102 32" fill="none" xmlns="http://www.w3.org/2000/svg">
<rect x="0.957642" width="101.042" height="31.9081" rx="4.5583" fill="#3C65F5"/>
<path d="M53.011 16.8365C51.5513 16.8365 50.3616 17.9468 50.3616 19.476C50.3616 20.996 51.5513 22.1156 53.011 22.1156C54.4714 22.1156 55.6612 20.996 55.6612 19.476C55.6605 17.9468 54.4708 16.8365 53.011 16.8365ZM53.011 21.0766C52.2111 21.0766 51.5215 20.4169 51.5215 19.4766C51.5215 18.5265 52.2117 17.8766 53.011 17.8766C53.811 17.8766 54.5006 18.5265 54.5006 19.4766C54.5006 20.4163 53.811 21.0766 53.011 21.0766ZM47.2305 16.8365C45.7707 16.8365 44.581 17.9468 44.581 19.476C44.581 20.996 45.7707 22.1156 47.2305 22.1156C48.6908 22.1156 49.8806 20.996 49.8806 19.476C49.8806 17.9468 48.6908 16.8365 47.2305 16.8365ZM47.2305 21.0766C46.4305 21.0766 45.7409 20.4169 45.7409 19.4766C45.7409 18.5265 46.4311 17.8766 47.2305 17.8766C48.0304 17.8766 48.72 18.5265 48.72 19.4766C48.7206 20.4163 48.0304 21.0766 47.2305 21.0766ZM40.3551 17.647V18.7666H43.035C42.9549 19.3966 42.7451 19.8565 42.4249 20.1761C42.0351 20.5659 41.425 20.996 40.3551 20.996C38.7054 20.996 37.4157 19.6659 37.4157 18.0163C37.4157 16.3666 38.7054 15.0366 40.3551 15.0366C41.245 15.0366 41.8949 15.3867 42.3746 15.8366L43.1647 15.0465C42.4944 14.4067 41.605 13.917 40.3551 13.917C38.0953 13.917 36.1956 15.7566 36.1956 18.0163C36.1956 20.276 38.0953 22.1156 40.3551 22.1156C41.5746 22.1156 42.495 21.7153 43.2143 20.9655C43.9541 20.2257 44.1844 19.1856 44.1844 18.3458C44.1844 18.0864 44.1645 17.8462 44.1242 17.6464H40.3551V17.647ZM68.4748 18.5165C68.2551 17.9269 67.5848 16.8365 66.2151 16.8365C64.8553 16.8365 63.7251 17.9064 63.7251 19.476C63.7251 20.9556 64.8453 22.1156 66.3448 22.1156C67.5544 22.1156 68.2545 21.3758 68.5449 20.9457L67.645 20.3455C67.3452 20.7856 66.935 21.0754 66.3448 21.0754C65.7552 21.0754 65.335 20.8054 65.065 20.2754L68.5946 18.8157L68.4748 18.5165ZM64.8751 19.3966C64.8453 18.3763 65.6652 17.8568 66.2554 17.8568C66.7153 17.8568 67.1051 18.087 67.2354 18.4166L64.8751 19.3966ZM62.0059 21.9561H63.1653V14.1975H62.0059V21.9561ZM60.1055 17.4267H60.0658C59.8058 17.1164 59.3055 16.8365 58.6762 16.8365C57.3561 16.8365 56.1465 17.9964 56.1465 19.4866C56.1465 20.9662 57.3561 22.1162 58.6762 22.1162C59.3062 22.1162 59.8058 21.8363 60.0658 21.5167H60.1055V21.8965C60.1055 22.9063 59.5656 23.4462 58.6961 23.4462C57.9861 23.4462 57.546 22.9367 57.366 22.5066L56.3563 22.9268C56.6461 23.6262 57.4157 24.4864 58.6961 24.4864C60.0559 24.4864 61.2059 23.6864 61.2059 21.7364V16.9972H60.1062V17.4267H60.1055ZM58.7761 21.0766C57.9761 21.0766 57.3065 20.4064 57.3065 19.4866C57.3065 18.5562 57.9761 17.8766 58.7761 17.8766C59.5656 17.8766 60.1856 18.5562 60.1856 19.4866C60.1856 20.4064 59.5656 21.0766 58.7761 21.0766ZM73.9078 14.1975H71.133V21.9561H72.2905V19.0168H73.9072C75.1907 19.0168 76.4531 18.0877 76.4531 16.6074C76.4531 15.1272 75.1913 14.1975 73.9078 14.1975ZM73.9376 17.9368H72.2905V15.2774H73.9376C74.8034 15.2774 75.295 15.9943 75.295 16.6074C75.295 17.2082 74.8034 17.9368 73.9376 17.9368ZM81.0948 16.8228C80.2563 16.8228 79.388 17.1921 79.0287 18.0107L80.0565 18.4396C80.2762 18.0107 80.6858 17.8704 81.1147 17.8704C81.7136 17.8704 82.3224 18.2298 82.3323 18.8684V18.9485C82.1226 18.8287 81.6732 18.6493 81.1246 18.6493C80.0168 18.6493 78.8884 19.2582 78.8884 20.3958C78.8884 21.4341 79.797 22.1026 80.8149 22.1026C81.5932 22.1026 82.0226 21.7531 82.292 21.3435H82.3317V21.9424H83.4501V18.9677C83.4507 17.5912 82.4217 16.8228 81.0948 16.8228ZM80.9545 21.0748C80.5759 21.0748 80.0465 20.8849 80.0465 20.4157C80.0465 19.8168 80.7057 19.5871 81.2748 19.5871C81.7831 19.5871 82.0233 19.697 82.3323 19.8465C82.2423 20.5659 81.6236 21.0748 80.9545 21.0748ZM87.5227 16.9922L86.1952 20.3561H86.1554L84.7776 16.9922H83.5302L85.5963 21.6936L84.4183 24.3089H85.626L88.8105 16.9922H87.5227ZM77.0923 21.9561H78.2498V14.1975H77.0923V21.9561Z" fill="white"/>
<path d="M40.1515 9.69413C40.1515 10.2142 39.9976 10.6282 39.6891 10.9373C39.3391 11.3047 38.8823 11.4884 38.3212 11.4884C37.7838 11.4884 37.3264 11.3022 36.9509 10.9298C36.5748 10.5568 36.3867 10.0951 36.3867 9.54394C36.3867 8.99219 36.5748 8.53044 36.9509 8.15806C37.3264 7.78506 37.7838 7.59887 38.3212 7.59887C38.5881 7.59887 38.8432 7.651 39.0852 7.75465C39.3279 7.85891 39.5222 7.99732 39.6674 8.17047L39.3403 8.49817C39.0939 8.20337 38.7544 8.05628 38.3206 8.05628C37.9284 8.05628 37.5895 8.19406 37.3034 8.46962C37.0173 8.74518 36.8745 9.10329 36.8745 9.54332C36.8745 9.98335 37.0173 10.3415 37.3034 10.617C37.5895 10.8926 37.9284 11.0304 38.3206 11.0304C38.7364 11.0304 39.0834 10.892 39.3608 10.6145C39.5408 10.4339 39.6451 10.1826 39.673 9.86046H38.3206V9.41299H40.1248C40.1434 9.51043 40.1515 9.60414 40.1515 9.69413Z" fill="white"/>
<path d="M43.0127 8.13886H41.3171V9.3193H42.8463V9.76678H41.3171V10.9472H43.0127V11.4053H40.8386V7.68145H43.0127V8.13886Z" fill="white"/>
<path d="M45.0303 11.4053H44.5518V8.13886H43.5116V7.68145H46.0705V8.13886H45.0303V11.4053Z" fill="white"/>
<path d="M47.9218 11.4053V7.68145H48.4003V11.4053H47.9218Z" fill="white"/>
<path d="M50.5224 11.4053H50.0439V8.13886H49.0037V7.68145H51.5626V8.13886H50.5224V11.4053Z" fill="white"/>
<path d="M56.4065 10.9243C56.0403 11.3004 55.5854 11.4884 55.0411 11.4884C54.4968 11.4884 54.0419 11.3004 53.6763 10.9243C53.3101 10.5482 53.1277 10.0876 53.1277 9.54335C53.1277 8.99905 53.3101 8.53854 53.6763 8.16243C54.0419 7.78633 54.4968 7.59766 55.0411 7.59766C55.5823 7.59766 56.0366 7.78695 56.404 8.16492C56.7714 8.54288 56.9551 9.00215 56.9551 9.54335C56.9551 10.0876 56.772 10.5482 56.4065 10.9243ZM54.0294 10.6121C54.305 10.8914 54.642 11.0304 55.0411 11.0304C55.4401 11.0304 55.7778 10.8907 56.0527 10.6121C56.3283 10.3328 56.4667 9.97655 56.4667 9.54335C56.4667 9.11014 56.3283 8.7539 56.0527 8.47461C55.7778 8.19533 55.4401 8.05631 55.0411 8.05631C54.642 8.05631 54.305 8.19595 54.0294 8.47461C53.7545 8.7539 53.6161 9.11014 53.6161 9.54335C53.6161 9.97655 53.7545 10.3328 54.0294 10.6121Z" fill="white"/>
<path d="M57.6267 11.4053V7.68145H58.2088L60.0186 10.578H60.0391L60.0186 9.8605V7.68145H60.4971V11.4053H59.9975L58.1039 8.36787H58.0834L58.1039 9.08532V11.4053H57.6267Z" fill="white"/>
<path fill-rule="evenodd" clip-rule="evenodd" d="M16.9981 8.35006C16.9422 8.50257 16.9117 8.68278 16.9117 8.88796V22.6139C16.9117 22.8193 16.9422 22.9994 16.998 23.1518L24.3984 15.7504L16.9981 8.35006ZM17.5303 23.6939C17.7962 23.7775 18.1289 23.7285 18.4888 23.5244L27.2142 18.5662L24.9356 16.2876L17.5303 23.6939ZM27.8997 18.1773L30.5918 16.6478C31.4588 16.1544 31.4588 15.3482 30.5918 14.8554L27.898 13.3247L25.4727 15.7503L27.8997 18.1773ZM27.2129 12.9354L18.4888 7.97811C18.1291 7.7737 17.7966 7.72485 17.5307 7.80833L24.9355 15.2131L27.2129 12.9354Z" fill="white"/>
</svg>
